<svg width="48" height="30" viewBox="0 0 48 30" fill="none" xmlns="http://www.w3.org/2000/svg">
<g clip-path="url(#clip0_1262_1440)">
<path d="M47.25 27.1574V3.0463C47.25 1.77809 46.2219 0.75 44.9537 0.75L3.0463 0.75C1.77809 0.75 0.75 1.77809 0.75 3.0463V27.1574C0.75 28.4256 1.77809 29.4537 3.0463 29.4537L44.9537 29.4537C46.2219 29.4537 47.25 28.4256 47.25 27.1574Z" fill="#6814E1"/>
<path d="M23.9171 24.24C22.6051 24.24 21.3491 24.056 20.1491 23.688C18.9491 23.304 17.9971 22.816 17.2931 22.224L18.3731 19.8C19.0451 20.328 19.8771 20.768 20.8691 21.12C21.8611 21.472 22.8771 21.648 23.9171 21.648C24.7971 21.648 25.5091 21.552 26.0531 21.36C26.5971 21.168 26.9971 20.912 27.2531 20.592C27.5091 20.256 27.6371 19.88 27.6371 19.464C27.6371 18.952 27.4531 18.544 27.0851 18.24C26.7171 17.92 26.2371 17.672 25.6451 17.496C25.0691 17.304 24.4211 17.128 23.7011 16.968C22.9971 16.808 22.2851 16.624 21.5651 16.416C20.8611 16.192 20.2131 15.912 19.6211 15.576C19.0451 15.224 18.5731 14.76 18.2051 14.184C17.8371 13.608 17.6531 12.872 17.6531 11.976C17.6531 11.064 17.8931 10.232 18.3731 9.48C18.8691 8.712 19.6131 8.104 20.6051 7.656C21.6131 7.192 22.8851 6.96 24.4211 6.96C25.4291 6.96 26.4291 7.088 27.4211 7.344C28.4131 7.6 29.2771 7.968 30.0131 8.448L29.0291 10.872C28.2771 10.424 27.5011 10.096 26.7011 9.888C25.9011 9.664 25.1331 9.552 24.3971 9.552C23.5331 9.552 22.8291 9.656 22.2851 9.864C21.7571 10.072 21.3651 10.344 21.1091 10.68C20.8691 11.016 20.7491 11.4 20.7491 11.832C20.7491 12.344 20.9251 12.76 21.2771 13.08C21.6451 13.384 22.1171 13.624 22.6931 13.8C23.2851 13.976 23.9411 14.152 24.6611 14.328C25.3811 14.488 26.0931 14.672 26.7971 14.88C27.5171 15.088 28.1651 15.36 28.7411 15.696C29.3331 16.032 29.8051 16.488 30.1571 17.064C30.5251 17.64 30.7091 18.368 30.7091 19.248C30.7091 20.144 30.4611 20.976 29.9651 21.744C29.4851 22.496 28.7411 23.104 27.7331 23.568C26.7251 24.016 25.4531 24.24 23.9171 24.24Z" fill="white" fill-opacity="0.8"/>
</g>
<defs>
<clipPath id="clip0_1262_1440">
<rect width="48" height="30" fill="white"/>
</clipPath>
</defs>
</svg>
