<svg width="25" height="25" viewBox="0 0 25 25" fill="none" xmlns="http://www.w3.org/2000/svg">
<mask id="mask0_1259_1434" style="mask-type:alpha" maskUnits="userSpaceOnUse" x="0" y="0" width="25" height="25">
<rect x="0.876953" y="0.226074" width="24" height="24" fill="#D9D9D9"/>
</mask>
<g mask="url(#mask0_1259_1434)">
<path d="M12.877 15.8011C12.7436 15.8011 12.6186 15.7802 12.502 15.7386C12.3853 15.6969 12.277 15.6261 12.177 15.5261L8.57695 11.9261C8.39362 11.7427 8.30195 11.5094 8.30195 11.2261C8.30195 10.9427 8.39362 10.7094 8.57695 10.5261C8.76029 10.3427 8.99779 10.2469 9.28945 10.2386C9.58112 10.2302 9.81862 10.3177 10.002 10.5011L11.877 12.3761V5.22607C11.877 4.94274 11.9728 4.70524 12.1645 4.51357C12.3561 4.32191 12.5936 4.22607 12.877 4.22607C13.1603 4.22607 13.3978 4.32191 13.5895 4.51357C13.7811 4.70524 13.877 4.94274 13.877 5.22607V12.3761L15.752 10.5011C15.9353 10.3177 16.1728 10.2302 16.4645 10.2386C16.7561 10.2469 16.9936 10.3427 17.177 10.5261C17.3603 10.7094 17.452 10.9427 17.452 11.2261C17.452 11.5094 17.3603 11.7427 17.177 11.9261L13.577 15.5261C13.477 15.6261 13.3686 15.6969 13.252 15.7386C13.1353 15.7802 13.0103 15.8011 12.877 15.8011ZM6.87695 20.2261C6.32695 20.2261 5.85612 20.0302 5.46445 19.6386C5.07279 19.2469 4.87695 18.7761 4.87695 18.2261V16.2261C4.87695 15.9427 4.97279 15.7052 5.16445 15.5136C5.35612 15.3219 5.59362 15.2261 5.87695 15.2261C6.16029 15.2261 6.39779 15.3219 6.58945 15.5136C6.78112 15.7052 6.87695 15.9427 6.87695 16.2261V18.2261H18.877V16.2261C18.877 15.9427 18.9728 15.7052 19.1645 15.5136C19.3561 15.3219 19.5936 15.2261 19.877 15.2261C20.1603 15.2261 20.3978 15.3219 20.5895 15.5136C20.7811 15.7052 20.877 15.9427 20.877 16.2261V18.2261C20.877 18.7761 20.6811 19.2469 20.2895 19.6386C19.8978 20.0302 19.427 20.2261 18.877 20.2261H6.87695Z" fill="white"/>
</g>
</svg>
