<svg width="25" height="25" viewBox="0 0 25 25" fill="none" xmlns="http://www.w3.org/2000/svg">
<mask id="mask0_588_31" style="mask-type:alpha" maskUnits="userSpaceOnUse" x="0" y="0" width="25" height="25">
<rect x="0.77832" y="0.585938" width="24" height="24" fill="#D9D9D9"/>
</mask>
<g mask="url(#mask0_588_31)">
<path d="M12.7783 12.2861C11.8117 12.2861 10.9867 11.9401 10.3033 11.2481C9.61999 10.5568 9.27832 9.73613 9.27832 8.78613C9.27832 7.81947 9.61999 6.99447 10.3033 6.31113C10.9867 5.6278 11.8117 5.28613 12.7783 5.28613C13.745 5.28613 14.57 5.6278 15.2533 6.31113C15.9367 6.99447 16.2783 7.81947 16.2783 8.78613C16.2783 9.73613 15.9367 10.5568 15.2533 11.2481C14.57 11.9401 13.745 12.2861 12.7783 12.2861ZM18.7533 19.8861H6.80332C6.36999 19.8861 6.00765 19.7405 5.71632 19.4491C5.42432 19.1571 5.27832 18.8028 5.27832 18.3861V17.6611C5.27832 17.1778 5.41165 16.7278 5.67832 16.3111C5.94499 15.8945 6.30332 15.5695 6.75332 15.3361C7.73665 14.8528 8.73265 14.4901 9.74132 14.2481C10.7493 14.0068 11.7617 13.8861 12.7783 13.8861C13.795 13.8861 14.8077 14.0068 15.8163 14.2481C16.8243 14.4901 17.82 14.8528 18.8033 15.3361C19.2533 15.5695 19.6117 15.8945 19.8783 16.3111C20.145 16.7278 20.2783 17.1778 20.2783 17.6611V18.3861C20.2783 18.8028 20.1323 19.1571 19.8403 19.4491C19.549 19.7405 19.1867 19.8861 18.7533 19.8861ZM6.77832 18.3861H18.7783V17.6611C18.7783 17.4611 18.72 17.2778 18.6033 17.1111C18.4867 16.9445 18.3283 16.8028 18.1283 16.6861C17.2617 16.2695 16.3827 15.9485 15.4913 15.7231C14.5993 15.4985 13.695 15.3861 12.7783 15.3861C11.8617 15.3861 10.9573 15.4985 10.0653 15.7231C9.17399 15.9485 8.29499 16.2695 7.42832 16.6861C7.22832 16.8028 7.06999 16.9445 6.95332 17.1111C6.83665 17.2778 6.77832 17.4611 6.77832 17.6611V18.3861ZM12.7783 10.7861C13.3283 10.7861 13.7993 10.5901 14.1913 10.1981C14.5827 9.8068 14.7783 9.33613 14.7783 8.78613C14.7783 8.23613 14.5827 7.76513 14.1913 7.37313C13.7993 6.9818 13.3283 6.78613 12.7783 6.78613C12.2283 6.78613 11.7577 6.9818 11.3663 7.37313C10.9743 7.76513 10.7783 8.23613 10.7783 8.78613C10.7783 9.33613 10.9743 9.8068 11.3663 10.1981C11.7577 10.5901 12.2283 10.7861 12.7783 10.7861Z" fill="#fff"/>
</g>
</svg>
