<svg width="25" height="25" viewBox="0 0 25 25" fill="none" xmlns="http://www.w3.org/2000/svg">
<mask id="mask0_588_7" style="mask-type:alpha" maskUnits="userSpaceOnUse" x="0" y="0" width="25" height="25">
<rect x="0.77832" y="0.585938" width="24" height="24" fill="#D9D9D9"/>
</mask>
<g mask="url(#mask0_588_7)">
<path d="M12.7283 18.5859C13.0783 18.5859 13.3743 18.4649 13.6163 18.2229C13.8577 17.9816 13.9783 17.6859 13.9783 17.3359C13.9783 16.9859 13.8577 16.6903 13.6163 16.4489C13.3743 16.2069 13.0783 16.0859 12.7283 16.0859C12.3783 16.0859 12.0823 16.2069 11.8403 16.4489C11.599 16.6903 11.4783 16.9859 11.4783 17.3359C11.4783 17.6859 11.599 17.9816 11.8403 18.2229C12.0823 18.4649 12.3783 18.5859 12.7283 18.5859ZM11.8283 14.7359H13.6783C13.6783 14.1859 13.741 13.7526 13.8663 13.4359C13.991 13.1193 14.345 12.6859 14.9283 12.1359C15.3617 11.7026 15.7033 11.2899 15.9533 10.8979C16.2033 10.5066 16.3283 10.0359 16.3283 9.48594C16.3283 8.5526 15.9867 7.83594 15.3033 7.33594C14.62 6.83594 13.8117 6.58594 12.8783 6.58594C11.9283 6.58594 11.1577 6.83594 10.5663 7.33594C9.97432 7.83594 9.56165 8.43594 9.32832 9.13594L10.9783 9.78594C11.0617 9.48594 11.2493 9.16094 11.5413 8.81094C11.8327 8.46094 12.2783 8.28594 12.8783 8.28594C13.4117 8.28594 13.8117 8.4316 14.0783 8.72294C14.345 9.01494 14.4783 9.33594 14.4783 9.68594C14.4783 10.0193 14.3783 10.3316 14.1783 10.6229C13.9783 10.9149 13.7283 11.1859 13.4283 11.4359C12.695 12.0859 12.245 12.5776 12.0783 12.9109C11.9117 13.2443 11.8283 13.8526 11.8283 14.7359ZM12.7783 22.5859C11.395 22.5859 10.095 22.3233 8.87832 21.7979C7.66165 21.2733 6.60332 20.5609 5.70332 19.6609C4.80332 18.7609 4.09099 17.7026 3.56632 16.4859C3.04099 15.2693 2.77832 13.9693 2.77832 12.5859C2.77832 11.2026 3.04099 9.9026 3.56632 8.68594C4.09099 7.46927 4.80332 6.41094 5.70332 5.51094C6.60332 4.61094 7.66165 3.89827 8.87832 3.37294C10.095 2.84827 11.395 2.58594 12.7783 2.58594C14.1617 2.58594 15.4617 2.84827 16.6783 3.37294C17.895 3.89827 18.9533 4.61094 19.8533 5.51094C20.7533 6.41094 21.4657 7.46927 21.9903 8.68594C22.5157 9.9026 22.7783 11.2026 22.7783 12.5859C22.7783 13.9693 22.5157 15.2693 21.9903 16.4859C21.4657 17.7026 20.7533 18.7609 19.8533 19.6609C18.9533 20.5609 17.895 21.2733 16.6783 21.7979C15.4617 22.3233 14.1617 22.5859 12.7783 22.5859Z" fill="#1C1B1F"/>
</g>
</svg>
